<?xml version="1.0" standalone="no"?>
<!DOCTYPE svg PUBLIC "-//W3C//DTD SVG 20010904//EN"
 "http://www.w3.org/TR/2001/REC-SVG-20010904/DTD/svg10.dtd">
<svg version="1.0" xmlns="http://www.w3.org/2000/svg"
 width="1000.000000pt" height="1000.000000pt" viewBox="0 0 1000.000000 1000.000000"
 preserveAspectRatio="xMidYMid meet">
<metadata>
Created by potrace 1.16, written by Peter Selinger 2001-2019
</metadata>
<g transform="translate(0.000000,1000.000000) scale(0.100000,-0.100000)"
fill="#000000" stroke="none">
<path d="M5079 8586 c-2 -3 -87 -6 -189 -7 -102 -1 -196 -7 -210 -12 -14 -5
-56 -10 -95 -12 -38 -2 -71 -4 -72 -6 -2 -1 -12 -3 -23 -4 -11 -1 -23 -4 -27
-5 -5 -1 -21 -4 -38 -5 -57 -6 -200 -31 -200 -35 0 -1 -9 -3 -20 -5 -76 -15
-112 -23 -125 -29 -8 -3 -28 -8 -45 -10 -41 -6 -90 -21 -151 -44 -28 -10 -68
-22 -89 -26 -21 -4 -45 -11 -54 -16 -9 -5 -41 -17 -70 -26 -61 -19 -334 -144
-411 -188 -14 -8 -64 -33 -112 -56 -49 -24 -88 -46 -88 -51 0 -5 -8 -9 -17 -9
-9 0 -25 -7 -35 -17 -18 -17 -43 -32 -88 -55 -14 -7 -34 -21 -45 -31 -11 -10
-40 -30 -65 -44 -25 -14 -57 -36 -71 -47 -15 -12 -39 -30 -53 -40 -15 -11 -37
-28 -49 -39 -12 -11 -37 -31 -55 -45 -18 -14 -54 -45 -80 -69 -26 -23 -50 -43
-54 -43 -5 0 -8 -7 -8 -16 0 -8 -13 -19 -28 -25 -15 -5 -36 -23 -46 -40 -10
-17 -29 -35 -42 -41 -13 -6 -24 -14 -24 -18 0 -4 -20 -27 -45 -52 -25 -25 -45
-51 -45 -57 0 -6 -7 -8 -16 -4 -11 4 -15 1 -12 -13 2 -12 -7 -23 -25 -32 -15
-7 -32 -24 -37 -37 -5 -12 -22 -32 -39 -45 -17 -12 -31 -28 -31 -36 0 -8 -11
-20 -25 -26 -14 -6 -25 -15 -25 -20 0 -4 -13 -22 -30 -40 -16 -17 -30 -36 -30
-42 0 -6 -12 -22 -25 -35 -14 -12 -23 -26 -20 -30 2 -5 -11 -23 -30 -41 -19
-19 -35 -39 -35 -45 0 -6 -11 -21 -25 -33 -14 -12 -25 -31 -25 -42 0 -10 -9
-24 -20 -30 -11 -6 -20 -15 -20 -21 0 -6 -13 -30 -30 -54 -16 -24 -30 -46 -30
-49 0 -3 -12 -22 -26 -43 -14 -21 -30 -48 -35 -60 -5 -13 -13 -23 -19 -23 -5
0 -10 -8 -10 -19 0 -10 -7 -24 -15 -31 -8 -7 -15 -21 -15 -31 0 -10 -8 -24
-17 -31 -10 -7 -19 -24 -21 -38 -1 -14 -7 -26 -12 -28 -6 -2 -10 -8 -10 -13 0
-9 -26 -72 -56 -134 -8 -16 -17 -45 -20 -62 -4 -18 -10 -33 -14 -33 -5 0 -16
-26 -26 -57 -9 -32 -21 -63 -27 -70 -5 -7 -6 -17 -2 -23 3 -5 2 -10 -2 -10
-10 0 -33 -79 -33 -110 0 -11 -4 -20 -10 -20 -5 0 -10 -10 -10 -22 0 -19 -9
-53 -51 -194 -5 -17 -9 -43 -9 -58 0 -15 -4 -35 -9 -44 -5 -9 -11 -39 -14 -67
-3 -27 -8 -57 -11 -65 -19 -49 -44 -246 -50 -398 -3 -52 -7 -96 -10 -99 -3 -3
-1 -13 4 -23 5 -10 6 -20 3 -24 -8 -8 -6 -181 2 -207 3 -9 1 -20 -4 -24 -6 -3
-7 -15 -3 -28 4 -12 7 -48 7 -79 0 -32 2 -58 5 -58 3 0 5 -28 5 -62 0 -53 16
-185 31 -263 2 -11 6 -34 8 -51 3 -17 10 -43 16 -58 5 -15 8 -32 4 -37 -3 -5
-2 -9 3 -9 4 0 9 -13 10 -29 1 -17 21 -92 43 -168 48 -159 44 -147 55 -195 4
-21 11 -38 17 -38 5 0 6 -5 3 -10 -3 -6 3 -22 14 -36 11 -14 18 -31 15 -38 -3
-8 4 -30 15 -50 12 -20 21 -42 21 -49 0 -8 14 -40 30 -72 17 -32 30 -65 30
-72 0 -8 6 -16 14 -19 8 -3 17 -20 20 -37 8 -41 29 -87 38 -87 5 0 8 -7 8 -16
0 -8 11 -30 24 -47 13 -18 27 -43 31 -57 4 -14 18 -38 30 -55 12 -16 25 -38
28 -47 4 -10 14 -18 23 -18 11 0 14 -5 10 -17 -4 -9 -3 -19 2 -22 13 -9 92
-126 92 -136 1 -6 14 -26 30 -45 17 -19 30 -41 30 -48 0 -9 6 -12 16 -8 11 4
20 -6 34 -37 22 -49 52 -87 69 -87 6 0 11 -7 11 -15 0 -8 25 -39 55 -70 30
-31 55 -64 55 -72 0 -9 6 -13 15 -9 8 3 14 1 12 -3 -4 -17 114 -143 246 -262
27 -24 63 -58 80 -75 18 -16 53 -45 80 -63 26 -17 47 -38 47 -45 0 -12 47 -41
62 -38 4 1 5 -4 2 -12 -5 -12 48 -41 69 -37 4 0 7 -8 7 -19 0 -14 5 -18 16
-13 10 4 20 0 26 -10 5 -10 15 -17 22 -17 7 0 21 -9 31 -20 10 -11 21 -17 26
-15 4 3 12 -2 17 -10 4 -9 18 -17 30 -18 12 -1 25 -9 28 -19 3 -11 15 -18 29
-18 12 0 26 -7 29 -16 3 -9 13 -14 20 -11 8 3 16 3 18 -1 6 -13 67 -52 83 -52
8 0 15 -4 15 -10 0 -5 7 -10 15 -10 8 0 15 -5 15 -11 0 -6 6 -9 13 -6 13 5 67
-23 67 -35 0 -4 11 -8 25 -8 14 0 33 -9 42 -20 13 -14 20 -17 30 -8 9 7 13 7
13 -1 0 -11 121 -74 145 -76 6 -1 33 -12 60 -25 28 -13 54 -23 59 -22 4 2 15
-3 23 -9 8 -7 25 -14 38 -15 14 -1 35 -10 47 -18 12 -9 28 -16 35 -16 6 0 24
-5 40 -12 15 -6 35 -12 43 -14 17 -3 56 -14 149 -44 35 -11 73 -20 83 -20 10
0 26 -4 36 -9 21 -12 172 -41 210 -41 15 0 33 -5 39 -11 6 -6 32 -12 59 -15
46 -4 69 -7 139 -18 17 -3 66 -7 110 -11 44 -3 116 -9 160 -14 123 -12 587 -4
598 12 6 8 10 9 13 1 4 -10 81 -2 224 22 19 3 42 6 50 6 8 1 20 5 27 10 7 5
17 7 22 4 5 -4 12 -2 16 3 3 6 18 10 33 10 48 0 157 19 203 36 24 9 55 18 69
18 14 1 34 7 46 14 11 6 50 17 87 23 37 7 67 16 67 21 0 5 16 9 35 9 19 0 35
4 35 9 0 5 18 11 39 15 22 3 74 22 115 41 42 19 81 35 87 35 10 0 79 27 151
58 21 10 38 20 38 25 0 4 5 7 10 7 6 0 50 22 98 50 48 27 96 50 105 50 9 0 21
9 27 20 6 11 15 18 20 15 5 -3 30 10 55 30 26 19 51 33 56 29 5 -3 9 -1 9 4 0
6 11 13 25 16 14 4 25 11 25 16 0 6 8 10 18 10 9 0 33 16 52 35 19 19 39 35
46 35 7 0 14 7 18 15 3 8 14 15 24 15 10 0 31 13 46 29 16 16 41 35 57 41 16
7 29 19 29 27 0 8 17 21 38 30 20 8 53 32 72 52 19 20 47 43 63 50 15 8 27 18
27 22 0 8 73 82 129 129 22 19 41 40 41 47 0 7 6 10 13 7 8 -3 22 11 34 33 12
21 36 47 52 58 17 11 31 27 31 35 0 9 20 33 45 55 25 22 45 45 45 52 0 7 14
22 30 35 17 12 30 30 30 40 0 9 11 25 25 34 14 9 25 25 25 35 0 10 14 28 30
41 17 12 30 29 30 38 0 9 9 25 21 36 12 10 30 36 40 56 11 21 28 42 38 48 11
5 22 23 26 40 4 16 10 30 15 30 5 0 12 10 16 22 7 22 15 34 47 69 9 10 17 21
17 24 0 3 0 12 0 20 0 9 10 19 23 24 12 5 21 11 20 15 -7 16 -1 34 17 54 11
12 21 29 23 39 2 10 9 29 17 43 8 14 15 32 15 40 1 8 6 14 13 13 7 -2 12 6 12
16 0 11 4 22 9 25 5 3 7 14 4 24 -2 10 3 24 11 31 9 8 16 20 16 27 0 8 5 14
10 14 6 0 10 6 8 13 -1 6 3 22 10 35 7 12 10 22 7 22 -4 0 3 15 14 33 11 19
18 36 15 39 -3 3 4 22 16 43 11 20 20 42 19 48 -1 7 3 25 9 40 7 16 12 38 12
50 0 12 7 35 15 51 9 17 17 43 19 59 2 16 10 34 17 39 11 7 11 11 2 15 -10 3
-10 10 1 31 7 15 17 47 21 72 4 25 10 50 14 55 3 6 7 21 8 35 3 41 8 65 17 78
4 6 4 17 1 22 -4 6 -2 17 4 24 6 7 9 20 6 27 -3 8 -1 44 5 79 11 68 14 90 25
180 4 30 7 183 7 340 -1 263 -10 422 -33 543 -5 26 -9 65 -9 85 0 21 -4 42 -9
48 -5 5 -12 29 -15 54 -9 77 -24 142 -50 225 -14 44 -26 89 -26 101 0 11 -5
25 -12 32 -6 6 -13 20 -15 29 -1 10 -6 35 -9 56 -3 20 -10 37 -15 37 -5 0 -9
13 -9 29 0 17 -4 32 -9 35 -4 3 -14 27 -21 53 -7 27 -18 57 -24 68 -6 11 -11
25 -11 30 -1 6 -17 45 -38 88 -20 43 -37 84 -37 92 0 8 -4 15 -9 15 -5 0 -19
25 -31 55 -12 30 -26 55 -31 55 -5 0 -9 11 -9 25 0 14 -6 28 -14 31 -8 3 -17
16 -20 30 -4 13 -11 24 -16 24 -6 0 -10 9 -10 20 0 11 -7 20 -15 20 -8 0 -15
8 -15 18 0 10 -7 27 -15 38 -8 10 -15 25 -15 32 0 14 -14 33 -42 60 -10 9 -18
22 -18 28 0 7 -12 22 -26 33 -14 11 -23 24 -20 30 3 5 -6 20 -20 32 -13 13
-33 40 -43 59 -11 19 -35 52 -55 73 -20 21 -36 44 -36 52 0 7 -7 15 -15 19 -8
3 -20 17 -25 31 -5 14 -13 25 -18 25 -5 0 -42 39 -83 87 -67 80 -90 106 -155
178 -12 13 -25 21 -28 17 -4 -3 -9 4 -13 16 -3 13 -13 22 -25 22 -12 0 -23 10
-29 29 -6 18 -23 36 -43 45 -18 8 -38 27 -44 41 -6 14 -18 25 -27 25 -8 0 -15
4 -15 9 0 5 -9 13 -20 16 -11 3 -20 12 -20 18 0 7 -23 27 -50 45 -28 17 -50
36 -50 42 0 5 -6 7 -14 4 -8 -3 -26 9 -43 30 -15 20 -33 36 -40 36 -7 0 -17 9
-23 20 -6 11 -19 20 -28 20 -10 0 -31 14 -47 30 -16 17 -35 30 -42 30 -7 0
-13 4 -13 9 0 5 -17 17 -37 26 -21 10 -52 29 -69 42 -17 12 -34 23 -37 23 -3
0 -41 22 -84 48 -43 26 -111 63 -150 82 -40 18 -73 37 -73 42 0 4 -7 8 -15 8
-8 0 -32 9 -52 20 -20 10 -40 17 -45 14 -4 -3 -8 -1 -8 3 0 11 -70 43 -93 43
-10 0 -25 4 -35 10 -62 34 -158 73 -192 77 -22 3 -45 12 -51 19 -6 8 -20 14
-30 14 -10 0 -20 4 -23 9 -4 5 -25 12 -48 16 -23 4 -49 11 -58 16 -8 4 -36 11
-62 14 -26 3 -50 10 -53 16 -4 5 -26 9 -51 9 -25 0 -54 5 -65 11 -17 9 -134
32 -219 44 -14 2 -25 4 -25 5 0 3 -67 11 -125 15 -30 2 -82 9 -115 14 -33 6
-87 11 -120 10 -33 0 -62 0 -65 1 -14 4 -128 9 -131 6z m151 -181 c160 -6 233
-11 285 -21 17 -3 46 -8 65 -11 127 -17 357 -66 445 -94 39 -12 79 -23 90 -25
11 -2 54 -15 95 -29 41 -14 80 -25 86 -25 6 0 17 -6 23 -14 6 -7 26 -16 44
-20 28 -5 136 -49 262 -106 22 -10 44 -18 49 -18 5 0 12 -4 15 -9 9 -12 41
-31 84 -49 20 -9 37 -20 37 -26 0 -5 4 -6 10 -3 5 3 33 -10 62 -30 29 -19 58
-35 64 -35 6 0 19 -9 29 -20 10 -12 24 -19 31 -16 7 3 20 -6 28 -20 9 -13 23
-24 31 -24 7 0 20 -6 27 -13 7 -7 58 -43 113 -79 55 -37 122 -87 149 -112 27
-25 53 -46 57 -46 4 0 16 -11 27 -25 11 -14 27 -25 36 -25 9 0 22 -11 28 -25
6 -14 15 -25 20 -25 4 0 43 -34 85 -75 43 -41 82 -78 86 -83 52 -49 217 -224
217 -230 0 -4 18 -28 41 -52 22 -25 47 -57 55 -72 8 -16 21 -28 29 -28 8 0 15
-8 15 -19 0 -10 7 -24 16 -32 15 -12 164 -233 164 -243 0 -3 14 -26 32 -52 34
-51 55 -88 102 -181 48 -96 51 -104 105 -233 29 -69 58 -138 65 -155 7 -16 23
-61 36 -100 12 -38 26 -79 30 -90 5 -11 15 -49 24 -85 9 -36 25 -99 36 -140
38 -138 71 -351 84 -548 7 -97 8 -518 1 -577 -2 -22 -7 -76 -10 -120 -4 -44
-13 -118 -21 -165 -8 -47 -17 -96 -19 -110 -2 -14 -11 -54 -19 -90 -9 -36 -20
-83 -25 -105 -31 -131 -47 -183 -108 -350 -36 -99 -132 -319 -165 -379 -15
-28 -36 -67 -46 -86 -9 -19 -44 -75 -77 -125 -33 -49 -65 -100 -71 -111 -6
-12 -31 -47 -55 -79 -24 -32 -54 -73 -67 -92 -13 -19 -29 -36 -37 -39 -7 -3
-19 -19 -25 -35 -7 -16 -21 -34 -31 -40 -11 -5 -19 -16 -19 -23 0 -7 -12 -24
-27 -38 -16 -14 -44 -44 -63 -68 -84 -104 -324 -334 -437 -419 -27 -20 -62
-49 -78 -63 -16 -15 -32 -25 -36 -22 -5 2 -13 -5 -19 -16 -6 -11 -16 -20 -21
-20 -6 0 -24 -10 -39 -22 -63 -51 -142 -104 -230 -153 -25 -14 -67 -39 -95
-55 -52 -30 -228 -122 -233 -120 -1 0 -15 -6 -32 -15 -73 -38 -359 -149 -410
-159 -14 -3 -47 -12 -75 -21 -67 -22 -147 -42 -165 -43 -8 0 -49 -9 -91 -20
-70 -19 -222 -48 -294 -57 -16 -2 -46 -7 -65 -10 -38 -5 -92 -11 -213 -20
-106 -9 -373 -9 -482 0 -238 18 -309 26 -415 45 -36 7 -90 16 -120 21 -30 5
-64 11 -75 13 -11 3 -60 15 -110 26 -49 12 -94 25 -100 30 -7 6 -15 7 -18 4
-4 -4 -21 -1 -39 6 -65 24 -74 27 -108 39 -19 7 -62 21 -94 32 -33 10 -65 24
-73 30 -7 6 -13 9 -13 6 0 -7 -117 38 -134 51 -6 5 -24 12 -41 16 -16 4 -37
14 -45 21 -8 7 -37 21 -65 30 -27 10 -65 28 -85 41 -19 13 -42 24 -52 24 -9 0
-20 4 -23 10 -3 5 -44 28 -91 51 -46 23 -112 59 -145 80 -33 22 -63 39 -68 39
-4 0 -18 11 -31 25 -12 13 -26 22 -31 20 -4 -3 -19 5 -32 17 -14 13 -36 31
-49 40 -12 10 -48 36 -78 58 -30 22 -86 68 -124 102 -37 35 -76 67 -85 72 -9
5 -21 17 -27 25 -7 9 -62 67 -123 130 -61 63 -111 118 -111 123 0 4 -7 8 -17
8 -9 0 -13 3 -10 7 4 3 -5 16 -18 29 -14 13 -25 27 -25 33 0 5 -3 11 -7 13
-10 4 -79 82 -111 123 -74 99 -192 263 -192 270 0 1 -18 29 -39 61 -37 56
-198 366 -232 450 -27 62 -66 166 -78 204 -6 19 -23 71 -37 115 -15 44 -27 85
-29 90 -4 20 -16 72 -30 125 -7 30 -16 78 -20 105 -3 28 -10 64 -15 80 -5 17
-11 46 -13 65 -3 19 -7 42 -11 50 -6 15 -10 55 -23 220 -9 119 -10 497 0 610
10 123 36 315 53 390 15 64 19 83 49 210 24 106 41 159 93 305 20 55 37 102
38 105 0 3 9 23 18 45 10 22 36 83 58 135 22 52 44 100 48 105 5 6 32 55 60
110 29 55 56 102 61 103 5 2 9 10 9 17 0 7 11 27 25 43 14 17 25 33 25 37 0 5
11 23 25 41 14 18 25 35 25 38 0 3 15 25 32 49 18 24 47 63 63 86 35 50 188
235 253 306 153 168 255 265 432 412 52 43 97 81 98 86 2 4 9 7 15 7 6 0 19 7
29 17 10 9 27 21 37 27 11 6 57 36 103 67 46 30 97 64 113 75 46 29 157 87
295 155 69 33 134 65 144 71 61 33 288 118 370 137 27 7 92 26 144 43 53 16
105 32 116 33 12 2 46 8 76 15 30 6 77 13 104 16 28 3 53 7 57 9 3 3 31 7 60
10 30 3 65 8 79 11 54 12 126 18 335 30 66 3 121 7 123 9 1 1 19 1 40 -1 20
-1 107 -5 192 -9z"/>
<path d="M4705 8085 c-364 -42 -718 -131 -995 -250 -47 -21 -100 -43 -118 -49
-18 -7 -38 -18 -44 -24 -7 -7 -17 -12 -22 -12 -9 0 -167 -77 -206 -100 -102
-62 -252 -157 -280 -178 -19 -15 -50 -38 -69 -50 -138 -94 -541 -477 -541
-513 0 -4 -22 -29 -48 -56 -27 -26 -72 -81 -101 -120 -29 -40 -57 -73 -62 -73
-5 0 -9 -4 -9 -9 0 -12 -35 -68 -72 -118 -16 -19 -28 -41 -28 -48 0 -7 -7 -18
-16 -26 -8 -7 -26 -33 -40 -58 -13 -25 -28 -53 -33 -61 -29 -53 -50 -96 -120
-245 -87 -185 -194 -528 -216 -695 -4 -25 -10 -61 -15 -80 -54 -214 -56 -812
-4 -1110 34 -193 147 -605 175 -635 5 -5 9 -18 9 -28 0 -11 13 -45 28 -76 16
-31 39 -78 51 -106 12 -27 29 -63 38 -80 9 -16 24 -46 34 -66 10 -19 25 -41
33 -49 9 -7 16 -20 16 -30 0 -9 9 -25 21 -36 12 -10 32 -39 45 -64 14 -25 38
-63 55 -85 26 -36 45 -61 99 -139 8 -12 24 -31 35 -43 11 -11 38 -42 60 -67
22 -26 72 -81 111 -122 49 -52 75 -87 83 -117 17 -58 69 -158 101 -193 34 -38
116 -104 128 -104 5 0 15 -6 21 -14 6 -8 33 -19 59 -26 44 -11 64 -14 165 -24
21 -2 48 -13 61 -25 12 -11 26 -21 31 -21 5 0 19 -10 33 -22 13 -13 41 -32 63
-43 81 -42 194 -108 197 -116 2 -5 8 -9 13 -9 5 0 51 -20 102 -45 52 -25 97
-45 101 -45 4 0 31 -10 59 -23 102 -46 183 -76 277 -102 52 -15 106 -31 118
-36 37 -15 299 -76 381 -89 133 -22 196 -28 371 -38 301 -17 619 3 880 54 41
8 86 16 99 19 13 2 38 9 55 14 17 6 76 22 131 36 55 14 107 29 115 32 8 3 20
7 25 8 38 9 290 106 385 148 170 75 367 189 447 258 18 16 52 33 75 40 137 37
239 89 308 158 41 41 110 149 110 173 0 9 55 72 121 140 67 67 133 140 147
161 13 20 29 37 34 37 5 0 11 8 15 18 3 9 14 26 24 37 41 46 146 199 186 272
12 22 29 45 37 52 9 8 16 19 16 26 0 7 8 23 18 36 33 43 83 142 129 254 24 61
50 124 58 140 24 54 92 278 115 380 12 55 26 116 31 135 5 19 11 53 14 75 3
22 8 54 10 70 35 203 40 708 9 910 -3 22 -7 54 -9 70 -1 17 -4 30 -5 30 -1 0
-4 9 -5 20 -9 70 -37 207 -50 244 -8 24 -15 52 -15 63 0 10 -6 31 -14 46 -8
15 -16 41 -19 57 -5 28 -48 158 -94 283 -11 29 -25 58 -32 65 -6 6 -11 17 -11
25 0 13 -29 74 -66 142 -8 14 -26 50 -41 80 -16 30 -31 57 -34 60 -6 5 -35 53
-63 105 -6 12 -27 43 -46 70 -19 28 -39 57 -45 66 -40 65 -169 234 -205 269
-16 16 -30 33 -30 37 0 23 -373 383 -450 436 -25 17 -47 33 -50 36 -3 4 -25
21 -50 39 -25 18 -66 48 -92 67 -26 19 -51 35 -56 35 -5 0 -15 7 -22 15 -10
12 -125 84 -235 147 -65 37 -220 110 -325 153 -36 14 -77 33 -92 41 -14 8 -33
14 -42 14 -9 0 -45 13 -81 29 -35 16 -66 27 -69 24 -3 -3 -23 2 -46 11 -22 9
-49 16 -60 16 -10 0 -31 5 -47 12 -15 6 -35 12 -43 14 -8 2 -49 10 -90 19 -97
21 -155 32 -205 40 -22 4 -49 9 -60 10 -11 2 -47 7 -80 10 -33 4 -76 9 -95 11
-87 12 -552 11 -655 -1z m630 -160 c186 -20 240 -28 341 -50 94 -21 251 -61
369 -95 62 -18 123 -39 141 -48 11 -6 62 -27 114 -48 52 -20 102 -40 110 -44
8 -4 31 -15 50 -24 19 -9 42 -20 50 -25 8 -5 43 -23 77 -39 34 -17 75 -38 90
-48 15 -11 36 -23 45 -29 52 -31 209 -134 248 -163 123 -91 312 -252 381 -324
20 -21 41 -38 47 -38 7 0 12 -6 12 -13 0 -7 15 -27 33 -44 17 -17 45 -45 60
-64 16 -19 43 -51 62 -72 19 -21 53 -66 77 -99 24 -33 58 -78 75 -101 18 -23
33 -48 33 -54 0 -7 9 -18 20 -25 11 -7 20 -17 20 -23 0 -6 15 -33 33 -60 60
-90 185 -321 217 -400 4 -11 21 -51 38 -90 16 -38 36 -88 43 -110 6 -22 20
-64 31 -93 16 -46 24 -77 43 -154 2 -10 13 -55 24 -100 48 -201 56 -249 68
-408 12 -165 5 -567 -13 -665 -2 -16 -6 -48 -8 -70 -4 -38 -30 -171 -56 -281
-25 -106 -116 -389 -150 -468 -10 -25 -17 -46 -13 -46 3 0 0 -6 -6 -14 -7 -8
-30 -50 -51 -93 -74 -151 -70 -173 -70 327 -1 245 -3 549 -5 675 -4 211 -3
234 15 283 51 136 6 251 -137 349 -41 29 -146 65 -198 69 -92 6 -233 -65 -295
-149 -66 -89 -71 -121 -76 -446 -3 -161 -7 -298 -10 -303 -3 -5 -18 4 -33 19
-42 42 -90 83 -99 83 -4 0 -24 17 -45 36 l-38 35 -2 627 c-3 682 0 650 -61
770 -29 57 -114 158 -155 184 -18 12 -32 34 -40 60 -7 24 -22 61 -32 82 -18
39 -18 40 0 60 38 43 79 113 90 152 15 57 -9 128 -53 155 -62 38 -103 45 -160
25 -28 -10 -68 -28 -88 -42 l-37 -24 -71 44 c-161 100 -392 155 -640 154 -251
-1 -427 -44 -643 -155 -53 -27 -92 -42 -95 -36 -18 26 -222 122 -292 136 -14
3 -50 12 -80 21 -76 21 -116 26 -259 33 -118 5 -357 -11 -390 -27 -9 -4 -61
-22 -116 -40 -102 -33 -198 -77 -248 -112 -26 -18 -30 -19 -45 -4 -24 21 -146
66 -180 66 -40 -1 -108 -35 -128 -65 -9 -14 -21 -45 -25 -68 -7 -36 -4 -51 21
-102 16 -33 43 -75 61 -93 31 -32 32 -35 20 -65 -7 -18 -19 -52 -27 -76 -10
-31 -33 -62 -82 -110 -105 -101 -146 -172 -171 -293 -9 -40 -12 -237 -13 -651
0 -327 -3 -598 -7 -603 -19 -27 -192 -175 -199 -170 -4 3 -7 110 -5 238 4 360
-15 456 -108 543 -27 26 -79 60 -116 77 -131 62 -265 33 -398 -84 -100 -87
-127 -217 -70 -328 8 -16 13 -40 10 -52 -10 -38 -15 -467 -14 -973 2 -317 1
-345 -8 -345 -10 0 -59 106 -124 262 -86 210 -179 561 -204 768 -35 294 -36
361 -10 795 2 28 10 91 19 140 9 50 17 104 18 120 1 17 4 35 7 40 7 13 12 33
16 73 2 18 8 38 12 45 4 6 8 18 9 27 5 30 24 101 33 118 5 9 25 67 44 127 47
144 61 180 73 196 5 8 20 39 33 69 13 30 27 62 32 70 4 8 27 53 51 100 24 47
48 90 54 95 6 6 20 26 30 45 11 19 22 37 25 40 4 3 27 37 53 75 25 39 58 87
73 108 16 20 46 62 68 92 22 30 46 54 53 55 6 0 12 6 12 14 0 8 10 23 23 33
13 10 27 25 33 34 21 38 177 198 284 292 222 195 440 343 673 456 146 71 277
131 285 131 4 0 41 13 82 29 87 34 229 78 315 98 118 27 291 61 350 68 33 4
71 9 85 11 14 2 63 7 110 10 47 4 86 8 88 9 6 5 427 -3 487 -10z m-849 -1459
c12 -2 39 -7 60 -10 111 -18 323 -103 380 -152 19 -16 23 -33 27 -116 3 -54 2
-100 -3 -103 -5 -3 -314 -5 -686 -6 -410 0 -696 -4 -722 -10 -25 -5 -46 -8
-48 -6 -2 1 4 23 14 49 19 55 16 63 -58 156 -27 35 -50 67 -50 73 0 20 46 7
109 -33 36 -23 77 -41 91 -41 14 0 55 18 92 40 163 99 304 146 493 163 80 7
261 5 301 -4z m1494 -11 c165 -34 245 -64 383 -147 43 -27 83 -48 89 -48 6 0
44 20 86 45 81 49 102 55 102 27 0 -21 -19 -50 -72 -111 -42 -48 -45 -65 -23
-107 18 -35 20 -58 3 -48 -19 12 -47 13 -723 13 -751 -1 -697 -1 -708 10 -5 5
-9 50 -8 101 0 120 -8 111 171 193 87 40 197 67 360 91 54 8 268 -4 340 -19z
m567 -543 c131 -37 222 -116 264 -232 l24 -65 0 -650 0 -650 -24 -59 c-40
-101 -136 -181 -241 -202 -19 -4 -715 -7 -1545 -7 -1352 0 -1517 2 -1565 16
-77 23 -129 60 -173 122 -67 96 -67 99 -67 770 0 565 1 632 15 696 14 65 86
168 144 206 15 9 61 29 103 43 l77 26 1473 -1 c1087 -1 1484 -5 1515 -13z
m-3956 -997 c70 -46 69 -56 -13 -135 -40 -38 -85 -75 -100 -81 -75 -31 -188
30 -188 102 0 25 9 41 41 70 90 83 179 98 260 44z m5054 22 c52 -21 135 -87
142 -114 4 -17 -1 -39 -13 -61 -34 -64 -137 -89 -199 -48 -47 31 -145 129
-145 145 0 39 87 91 150 90 19 0 49 -6 65 -12z m-196 -331 l30 -38 -4 -285
c-2 -157 -7 -288 -10 -291 -3 -3 -24 12 -45 34 l-40 39 -4 303 -4 302 23 -13
c13 -6 37 -29 54 -51z m-4758 -168 c2 -385 4 -367 -41 -412 -21 -21 -43 -35
-49 -32 -8 5 -11 94 -11 292 l0 286 36 44 c62 76 64 72 65 -178z m-264 98 c2
-2 5 -161 8 -355 l5 -353 -29 -37 c-68 -86 -66 -74 -69 -431 -2 -178 -5 -326
-8 -329 -21 -21 -25 43 -25 360 0 189 0 528 1 752 l0 408 58 -7 c31 -3 58 -7
59 -8z m5342 -741 c-2 -641 -4 -759 -17 -785 -8 -16 -18 -30 -23 -30 -5 0 -9
136 -9 303 -2 432 -2 430 -66 506 l-26 31 1 352 c1 194 4 354 7 357 5 5 76 18
112 20 l22 1 -1 -755z m-4680 300 c0 -131 10 -167 70 -268 35 -60 155 -177
180 -177 8 0 22 -6 30 -13 9 -7 43 -21 76 -31 33 -10 72 -21 87 -26 14 -4 694
-7 1510 -6 l1483 1 78 28 c138 48 236 125 297 232 43 74 58 134 65 250 3 54 8
101 10 103 2 3 15 -4 28 -14 33 -25 234 -199 272 -235 17 -16 71 -63 120 -104
95 -79 164 -156 166 -184 6 -111 6 -586 -1 -615 -5 -22 -17 -51 -28 -65 -28
-38 -124 -73 -211 -76 -117 -5 -139 1 -157 44 -45 108 -213 196 -359 187 -89
-6 -194 -50 -254 -108 -51 -49 -104 -144 -116 -208 -6 -32 -11 -36 -67 -54
-58 -18 -107 -19 -1132 -20 -1320 -1 -1419 1 -1479 22 -43 15 -47 20 -61 72
-72 253 -368 367 -591 227 -27 -17 -57 -39 -65 -48 -8 -9 -30 -33 -48 -53 -32
-36 -35 -38 -81 -31 -35 5 -63 1 -107 -14 -99 -33 -223 0 -280 75 l-29 37 -2
301 c-1 166 2 314 8 331 10 34 33 61 105 125 28 25 86 77 129 115 44 39 89 79
100 90 12 11 37 32 56 47 19 15 68 58 109 97 41 38 78 67 82 65 4 -2 7 -47 7
-99z m241 -152 c19 -11 60 -29 90 -39 52 -17 139 -17 1597 -17 1416 1 1546 2
1599 18 70 20 131 50 162 79 l24 21 -7 -30 c-26 -110 -143 -210 -274 -235 -37
-7 -1262 -15 -1806 -12 -5 0 -262 1 -570 2 -618 1 -645 3 -743 63 -70 42 -119
104 -153 194 l-10 28 28 -26 c15 -14 44 -35 63 -46z m3568 -982 c29 -9 69 -30
89 -45 76 -61 96 -186 39 -245 -36 -38 -33 -80 7 -99 66 -32 133 36 173 175 6
21 60 -5 97 -47 78 -85 46 -261 -62 -348 -72 -57 -141 -82 -231 -82 -43 0 -82
5 -85 10 -3 6 -13 10 -21 10 -8 0 -48 16 -89 36 -72 35 -76 35 -100 20 -14 -9
-27 -29 -30 -44 -30 -145 -101 -232 -232 -283 -47 -18 -78 -22 -158 -22 -95 0
-104 2 -170 36 -74 38 -134 92 -164 147 -10 19 -29 43 -43 53 -22 16 -32 17
-89 8 -42 -8 -313 -10 -799 -9 l-735 3 -6 37 c-7 43 -21 64 -51 71 -30 8 -78
-42 -78 -82 0 -66 -98 -184 -190 -228 -48 -23 -68 -27 -155 -27 -82 0 -110 4
-159 23 -103 41 -183 131 -220 247 -30 92 -70 107 -150 59 -94 -57 -175 -78
-269 -72 -84 6 -117 13 -117 27 0 4 -14 10 -30 14 -41 8 -114 78 -141 135 -50
107 -15 253 74 305 67 40 99 46 149 31 57 -17 79 -5 140 73 61 78 135 117 223
116 137 -1 245 -107 245 -239 0 -39 -27 -86 -73 -127 -41 -36 -42 -38 -27 -64
8 -16 28 -31 44 -35 40 -11 117 31 151 82 29 45 25 43 69 25 69 -29 89 -111
41 -168 -29 -34 -32 -64 -8 -90 31 -35 93 -13 140 49 25 32 28 45 28 109 0 70
1 74 25 79 14 3 41 3 60 0 19 -3 496 -4 1060 -3 1214 2 1119 2 1125 -4 2 -2
-1 -20 -7 -40 -18 -60 -2 -139 37 -185 39 -46 102 -71 135 -53 43 23 51 92 11
105 -35 11 -54 43 -54 89 0 52 21 89 66 116 46 28 63 25 105 -19 25 -27 50
-42 76 -47 35 -6 42 -4 63 20 30 35 29 48 -6 88 -45 52 -54 76 -47 123 16 107
131 202 246 203 14 1 49 -7 78 -17z m-981 -958 c72 -76 109 -99 217 -134 68
-21 75 -38 15 -39 -14 0 -29 -4 -35 -9 -16 -16 -304 -95 -389 -106 -11 -2 -33
-6 -50 -9 -299 -63 -847 -75 -1110 -25 -27 5 -97 18 -155 29 -101 19 -133 26
-285 71 -38 11 -77 21 -85 23 -8 2 -28 8 -43 15 -16 6 -34 11 -41 11 -7 0 -21
7 -32 15 -18 14 -18 14 4 15 13 0 57 14 98 31 73 30 157 98 197 160 l16 24
805 -1 805 0 68 -71z"/>
<path d="M5716 7508 c-9 -12 -16 -33 -16 -45 0 -17 -6 -23 -23 -23 -64 0 -77
-65 -17 -85 26 -9 36 -19 42 -43 12 -44 41 -59 68 -32 11 11 20 31 20 45 0 21
5 25 30 25 21 0 35 8 46 25 16 24 16 27 -1 45 -10 11 -31 20 -47 20 -22 0 -28
4 -28 23 0 28 -26 67 -45 67 -8 0 -21 -10 -29 -22z"/>
<path d="M2356 5768 c-9 -12 -16 -35 -16 -50 0 -27 -3 -29 -63 -42 -25 -6 -28
-11 -25 -39 3 -28 7 -33 37 -37 28 -4 36 -11 42 -34 9 -32 36 -66 54 -66 20 0
45 35 45 63 0 21 5 27 23 27 33 0 69 28 65 52 -3 23 -19 34 -60 43 -23 4 -28
11 -28 35 0 29 -29 70 -49 70 -6 0 -17 -10 -25 -22z"/>
<path d="M7811 5577 c-6 -8 -12 -29 -15 -48 -2 -24 -9 -35 -22 -37 -40 -7 -74
-25 -80 -44 -7 -23 22 -59 45 -57 40 4 50 -2 56 -33 9 -41 22 -58 46 -58 22 0
49 37 49 67 0 19 5 23 30 23 28 0 70 29 70 48 0 16 -35 40 -67 47 -28 6 -33
11 -33 36 0 17 -5 39 -10 50 -12 22 -52 25 -69 6z"/>
<path d="M3664 5694 c-69 -34 -81 -138 -24 -196 52 -51 151 -34 186 33 31 61
7 136 -52 164 -40 19 -71 19 -110 -1z"/>
<path d="M6211 5624 c-76 -63 -32 -184 67 -184 71 0 127 79 102 141 -29 70
-112 91 -169 43z"/>
<path d="M4346 5438 c-9 -12 -16 -33 -16 -46 0 -29 42 -72 70 -72 28 0 70 43
70 73 0 59 -91 92 -124 45z"/>
<path d="M4175 5063 c-145 -76 -158 -268 -25 -358 35 -24 56 -30 95 -30 74 0
103 12 147 56 89 90 92 191 9 281 -37 40 -55 52 -91 58 -66 13 -101 11 -135
-7z"/>
<path d="M5734 5067 c-87 -34 -134 -105 -134 -202 0 -102 92 -194 194 -195
108 0 206 102 206 213 -1 136 -140 232 -266 184z"/>
<path d="M6397 4999 c-26 -15 -49 -74 -41 -107 8 -35 39 -69 70 -76 36 -10 88
17 106 54 40 83 -56 175 -135 129z"/>
<path d="M4695 4848 c-18 -16 -26 -34 -27 -58 -5 -169 135 -307 324 -318 136
-8 235 24 312 101 56 56 79 109 84 187 4 73 -7 98 -50 105 -38 7 -77 -29 -89
-85 -16 -71 -46 -110 -107 -138 -46 -21 -65 -24 -126 -20 -78 5 -144 32 -171
70 -8 13 -25 52 -36 87 -10 36 -24 70 -30 78 -17 20 -55 16 -84 -9z"/>
</g>
</svg>
